<svg width="38" height="38" viewBox="0 0 38 38" fill="none" xmlns="http://www.w3.org/2000/svg">
<path d="M31.5719 14.8468C30.6948 12.7868 29.3253 10.9736 27.5838 9.56635C25.8423 8.15912 23.782 7.20091 21.5837 6.77582L23.5695 3.59859L21.5555 2.33984L18.9352 6.53231C16.2661 6.5447 13.6592 7.33877 11.4364 8.81641C9.21366 10.2941 7.47251 12.3905 6.42809 14.8468C5.02911 14.8734 3.6964 15.4478 2.71644 16.4466C1.73648 17.4454 1.1875 18.7887 1.1875 20.188C1.1875 21.5872 1.73648 22.9306 2.71644 23.9293C3.6964 24.9281 5.02911 25.5025 6.42809 25.5291C7.47695 27.9955 9.22811 30.0989 11.4635 31.5774C13.6989 33.0559 16.3199 33.8442 19 33.8442C21.6801 33.8442 24.3011 33.0559 26.5365 31.5774C28.7719 30.0989 30.5231 27.9955 31.5719 25.5291C32.9709 25.5025 34.3036 24.9281 35.2836 23.9293C36.2635 22.9306 36.8125 21.5872 36.8125 20.188C36.8125 18.7887 36.2635 17.4454 35.2836 16.4466C34.3036 15.4478 32.9709 14.8734 31.5719 14.8468ZM33.5871 22.2668C33.0439 22.8224 32.3036 23.1414 31.5268 23.1546L29.9886 23.1838L29.3865 24.5995C28.5201 26.6373 27.0734 28.3752 25.2266 29.5968C23.3798 30.8184 21.2144 31.4698 19 31.4698C16.7857 31.4698 14.6203 30.8184 12.7735 29.5968C10.9267 28.3752 9.47998 26.6373 8.61361 24.5995L8.0114 23.1838L6.47322 23.1546C5.69604 23.14 4.95561 22.8211 4.41113 22.2663C3.86665 21.7116 3.56162 20.9653 3.56162 20.188C3.56162 19.4107 3.86665 18.6644 4.41113 18.1096C4.95561 17.5549 5.69604 17.2359 6.47322 17.2214L8.0114 17.1921L8.61361 15.7765C9.48 13.7387 10.9267 12.0008 12.7735 10.7792C14.6204 9.5576 16.7857 8.90624 19 8.90624C21.2143 8.90624 23.3797 9.5576 25.2266 10.7792C27.0734 12.0008 28.5201 13.7387 29.3865 15.7765L29.9886 17.1921L31.5268 17.2214C32.1065 17.2323 32.6702 17.4129 33.1484 17.7407C33.6266 18.0686 33.9982 18.5293 34.2174 19.0661C34.4366 19.6028 34.4937 20.192 34.3816 20.7609C34.2696 21.3297 33.9934 21.8533 33.5871 22.2668Z" fill="#023748"/>
<path d="M12.4688 17.2188H15.4375V20.1875H12.4688V17.2188ZM22.5625 17.2188H25.5312V20.1875H22.5625V17.2188ZM19 28.5C19.7797 28.5 20.5518 28.3464 21.2722 28.048C21.9926 27.7496 22.6471 27.3123 23.1984 26.7609C23.7498 26.2096 24.1871 25.5551 24.4855 24.8347C24.7839 24.1143 24.9375 23.3422 24.9375 22.5625H13.0625C13.0625 23.3422 13.2161 24.1143 13.5145 24.8347C13.8129 25.5551 14.2502 26.2096 14.8016 26.7609C15.9151 27.8744 17.4253 28.5 19 28.5Z" fill="#023748"/>
</svg>
